<svg width="30" height="30" viewBox="0 0 30 30" fill="none" xmlns="http://www.w3.org/2000/svg">
<path d="M15 0C13.0109 0 11.1032 0.790176 9.6967 2.1967C8.29018 3.60322 7.5 5.51088 7.5 7.5C7.5 9.48912 8.29018 11.3968 9.6967 12.8033C11.1032 14.2098 13.0109 15 15 15C16.9891 15 18.8968 14.2098 20.3033 12.8033C21.7098 11.3968 22.5 9.48912 22.5 7.5C22.5 5.51088 21.7098 3.60322 20.3033 2.1967C18.8968 0.790176 16.9891 0 15 0ZM15 18.75C6.7125 18.75 1.90735e-06 22.1062 1.90735e-06 26.25V30H30V26.25C30 22.1062 23.2875 18.75 15 18.75Z" fill="white"/>
</svg>
