<svg width="23" height="33" viewBox="0 0 23 33" fill="none" xmlns="http://www.w3.org/2000/svg">
<path d="M21.8497 6.59862C23.5162 10.1846 23.1381 14.4059 21.2928 17.8365C19.7789 20.6511 17.5198 22.979 15.6581 25.5557C14.8069 26.7355 13.9476 27.962 13.3632 29.3054C13.1693 29.7522 13.0016 30.2101 12.8366 30.6694C12.6702 31.1272 12.5286 31.5947 12.3691 32.0554C12.2192 32.4871 12.0446 32.9959 11.5069 33H11.4973C10.8566 32.9986 10.7012 32.2712 10.5417 31.7804C10.1512 30.5786 9.7428 29.425 9.14055 28.3085C8.4393 27.0105 7.56618 25.8101 6.6793 24.6359L21.8497 6.59862ZM6.74943 10.5944L1.3058 17.0665C2.3013 19.184 3.80968 21.0031 5.25343 22.814C5.59351 23.2402 5.9313 23.6692 6.2668 24.101L13.1198 15.9541L13.0799 15.9679C10.6861 16.7942 8.0048 15.5677 7.04093 13.2357C6.90932 12.9191 6.81295 12.589 6.75355 12.2512C6.66693 11.6504 6.64768 11.2049 6.74805 10.604L6.74943 10.5944ZM2.55155 4.32987L2.54743 4.33537C-0.129697 7.72612 -0.588946 12.4204 1.01155 16.3941L7.59093 8.57175L7.51118 8.503L2.55155 4.32987ZM15.1589 0.599496L9.88168 6.87362L9.9188 6.85987C12.1188 6.10225 14.5979 7.06612 15.7213 9.09562C15.9633 9.53425 16.1654 10.0347 16.2397 10.5325C16.3332 11.1457 16.3566 11.5954 16.2562 12.21L16.2521 12.232L21.5266 5.96062C20.1484 3.44647 17.8824 1.53642 15.1713 0.603621L15.1589 0.599496ZM8.0158 8.0685L14.4728 0.39187L14.4082 0.37537C13.4527 0.124068 12.4687 -0.00211173 11.4808 -4.55744e-06C9.88115 0.0150612 8.30188 0.360692 6.84216 1.01519C5.38245 1.66968 4.07381 2.6189 2.99843 3.80325L2.97643 3.828L8.0158 8.0685Z" fill="#FF9900"/>
</svg>
