<svg width="388" height="100" viewBox="0 0 388 100" fill="none" xmlns="http://www.w3.org/2000/svg">
<path d="M50.8504 79.9154C52.775 79.1016 54.6346 78.0925 56.368 76.9166C57.8369 75.9278 59.2244 74.8088 60.5184 73.5922L37.9557 50.407V82.4586C38.0371 82.4586 38.1184 82.4586 38.1917 82.4586C42.5862 82.4667 46.8505 81.6122 50.8504 79.9154Z" fill="white"/>
<mask id="mask0_726_5440" style="mask-type:luminance" maskUnits="userSpaceOnUse" x="37" y="11" width="29" height="16">
<path d="M37.5 11.7268H65.625V26.0416H37.5V11.7268Z" fill="white"/>
</mask>
<g mask="url(#mask0_726_5440)">
<path d="M62.4146 25.7119L65.2018 22.9287C63.4766 21.2035 61.5682 19.6328 59.55 18.2656C57.5114 16.8903 55.3263 15.7062 53.064 14.7459C50.7568 13.7694 48.3398 13.0247 45.8903 12.5243C43.3716 12.0116 40.7918 11.7471 38.1999 11.7471C38.1185 11.7471 38.0371 11.7471 37.9639 11.7471V15.6859C38.0493 15.6859 38.1307 15.6859 38.1999 15.6859C47.3389 15.6859 55.9489 19.2463 62.4146 25.7119Z" fill="white"/>
</g>
<path d="M13.9445 25.765L11.1898 22.937C11.1898 22.937 11.1898 22.937 11.1776 22.9492C9.45638 24.6704 7.88574 26.5788 6.51855 28.6011C5.13916 30.6396 3.95915 32.8206 2.99886 35.0871C2.01823 37.3901 1.2736 39.8112 0.777181 42.2567C0.276693 44.7144 0.0122071 47.2453 0 49.7762H3.9388C3.97949 40.4012 7.80436 31.9255 13.9445 25.765Z" fill="white"/>
<mask id="mask1_726_5440" style="mask-type:luminance" maskUnits="userSpaceOnUse" x="0" y="50" width="39" height="39">
<path d="M0 50H38.5417V88.2894H0V50Z" fill="white"/>
</mask>
<g mask="url(#mask1_726_5440)">
<path d="M13.6678 73.8485L10.8724 76.5625L10.6283 76.3062L13.4237 73.5921C7.58057 67.4845 3.97949 59.2122 3.9266 50.1221H0C0.0122071 52.653 0.276693 55.1798 0.777181 57.6416C1.2736 60.0871 2.03044 62.5041 2.99886 64.8112C3.95915 67.0736 5.13916 69.2586 6.51856 71.2972C7.88574 73.3195 9.45638 75.2238 11.1776 76.9491C12.9028 78.6743 14.8112 80.245 16.8294 81.6121C18.8721 82.9875 21.0531 84.1716 23.3195 85.1278C25.6226 86.1084 28.0396 86.853 30.4891 87.3535C32.8166 87.8337 35.201 88.0859 37.5895 88.1266V84.1919C28.2349 84.0373 19.7673 80.1025 13.6678 73.8485Z" fill="white"/>
</g>
<mask id="mask2_726_5440" style="mask-type:luminance" maskUnits="userSpaceOnUse" x="10" y="11" width="29" height="16">
<path d="M10.4166 11.7268H38.5416V26.0416H10.4166V11.7268Z" fill="white"/>
</mask>
<g mask="url(#mask2_726_5440)">
<path d="M23.3276 14.7459C21.0652 15.7062 18.8801 16.8903 16.8416 18.2656C14.925 19.5596 13.1062 21.0488 11.446 22.6724L14.2008 25.4963C20.2595 19.5514 28.4993 15.8283 37.5976 15.6737V11.7471C35.2009 11.7878 32.8246 12.0441 30.4972 12.5243C28.0395 13.0247 25.6347 13.7775 23.3276 14.7459Z" fill="white"/>
</g>
<mask id="mask3_726_5440" style="mask-type:luminance" maskUnits="userSpaceOnUse" x="37" y="50" width="41" height="39">
<path d="M37.5 50H77.0833V88.2894H37.5V50Z" fill="white"/>
</mask>
<g mask="url(#mask3_726_5440)">
<path d="M72.4528 50.1221C72.4039 59.7087 68.3919 68.3797 61.9791 74.5809L64.6484 77.3275L64.3961 77.5716L61.7228 74.8291C55.5826 80.6396 47.2981 84.2122 38.1917 84.2122C38.1103 84.2122 38.0249 84.2122 37.9557 84.2122V88.147C38.0371 88.147 38.1184 88.147 38.1917 88.147C40.7796 88.147 43.3715 87.8825 45.8821 87.3739C48.3276 86.8734 50.7487 86.1206 53.0517 85.1481C55.3182 84.1919 57.4991 83.0078 59.5377 81.6325C61.56 80.2653 63.4684 78.6947 65.1896 76.9694C66.9148 75.2441 68.4855 73.3398 69.8527 71.3175C71.228 69.279 72.4121 67.0939 73.3724 64.8315C74.3489 62.5244 75.0936 60.1074 75.594 57.6619C76.0945 55.2002 76.359 52.6733 76.3712 50.1424H72.4528V50.1221Z" fill="white"/>
</g>
<path d="M11.2224 31.7626C10.0464 33.496 9.03731 35.3637 8.22351 37.2802C6.54708 41.2271 5.69259 45.4304 5.67224 49.7558H37.3251L15.149 26.9856C13.6882 28.4545 12.3739 30.0577 11.2224 31.7626Z" fill="white"/>
<path d="M60.7829 73.3398C60.9253 73.2056 61.0596 73.0713 61.1938 72.9289C62.6628 71.46 64.0055 69.8405 65.1693 68.1152C66.3411 66.3818 67.3543 64.5142 68.1681 62.5977C69.8405 58.6507 70.6991 54.4474 70.7194 50.1221H38.1592L60.7829 73.3398Z" fill="white"/>
<path d="M20.0114 22.9696C18.3716 24.0804 16.8213 25.3459 15.4012 26.7415L37.5977 49.5402V17.4194C33.4148 17.4927 29.358 18.3472 25.5331 19.9707C23.6125 20.7845 21.757 21.7936 20.0114 22.9696Z" fill="white"/>
<path d="M15.1978 72.9411C16.6667 74.41 18.2902 75.7568 20.0114 76.9165C21.7489 78.0924 23.6125 79.1016 25.5331 79.9154C29.358 81.5389 33.4148 82.3853 37.5977 82.4666V50.5493L14.9008 72.644C15.0066 72.7458 15.0961 72.8394 15.1978 72.9411Z" fill="white"/>
<path d="M8.22351 62.5977C9.03731 64.5264 10.0464 66.3818 11.2224 68.1152C12.2396 69.6248 13.3912 71.0653 14.6566 72.3877L37.5285 50.1221H5.67224C5.69259 54.4474 6.54708 58.6507 8.22351 62.5977Z" fill="white"/>
<path d="M61.1816 26.945C61.1816 26.945 61.1938 26.945 61.1938 26.9572C61.2019 26.9653 61.2223 26.9857 61.2548 27.006C61.2345 26.9857 61.2142 26.9653 61.1816 26.945C59.7127 25.4679 58.0892 24.1333 56.368 22.9696C54.6346 21.7936 52.7669 20.7845 50.8504 19.9707C46.8383 18.278 42.5862 17.4194 38.1917 17.4194C38.1103 17.4194 38.0249 17.4194 37.9557 17.4194V49.703L56.0506 32.076L61.1816 26.945Z" fill="white"/>
<mask id="mask4_726_5440" style="mask-type:luminance" maskUnits="userSpaceOnUse" x="71" y="18" width="16" height="28">
<path d="M71.875 18.75H86.7187V45.8333H71.875V18.75Z" fill="white"/>
</mask>
<g mask="url(#mask4_726_5440)">
<path d="M85.7218 38.1143C85.2254 35.6689 84.4685 33.2519 83.5001 30.9447C82.5398 28.6824 81.3598 26.4973 79.9804 24.4587C78.6132 22.4364 77.0426 20.5321 75.3214 18.8069L72.526 21.5819C78.9917 28.0476 82.5602 36.6576 82.5602 45.8088H86.499C86.499 43.225 86.2345 40.6371 85.7218 38.1143Z" fill="#FFDDAA"/>
</g>
<path d="M71.2687 22.8271L62.9354 31.1605L48.2788 45.8089L68.9534 45.695L70.4427 45.6869H70.638L80.8187 45.634C81.4412 32.6172 71.2687 22.8271 71.2687 22.8271Z" fill="#FF9900"/>
<path d="M117.8 57.9619C121.486 57.9619 124.326 58.6414 126.312 59.9964C128.298 61.3433 129.29 63.2516 129.29 65.7256C129.29 68.1995 128.298 70.1038 126.312 71.4385C124.326 72.7731 121.486 73.4404 117.8 73.4404H106.895V81.7738H93.5646V57.9619H117.8ZM114.528 66.7673C116.424 66.7673 117.376 66.4214 117.376 65.7256C117.376 65.0664 116.424 64.7002 114.528 64.6351H106.895V66.7673H114.528Z" fill="white"/>
<path d="M139.752 61.3962C137.624 61.3962 135.98 61.0869 134.82 60.4684C133.657 59.8499 133.079 58.967 133.079 57.8154C133.079 56.6761 133.657 55.7972 134.82 55.1787C135.98 54.5602 137.624 54.251 139.752 54.251C141.908 54.251 143.561 54.5602 144.7 55.1787C145.839 55.7972 146.409 56.6761 146.409 57.8154C146.409 58.967 145.839 59.8499 144.7 60.4684C143.561 61.0869 141.908 61.3962 139.752 61.3962ZM146.409 62.7308V81.7738H133.079V62.7308H146.409Z" fill="white"/>
<path d="M187.221 74.6287V81.7739H151.511V76.2563L166.648 69.8761H151.17V62.731H186.895V68.1509L172.931 74.6287H187.221Z" fill="white"/>
<path d="M228.02 74.6287V81.7739H192.311V76.2563L207.448 69.8761H191.969V62.731H227.695V68.1509L213.73 74.6287H228.02Z" fill="white"/>
<path d="M267.778 62.731V81.7739H254.432V79.9185C252.434 81.4728 249.671 82.2459 246.147 82.2459C241.643 82.2459 238.164 81.3752 235.714 79.6255C233.273 77.8799 232.052 75.4222 232.052 72.2524C232.052 69.042 233.273 66.5721 235.714 64.8468C238.164 63.1134 241.643 62.2427 246.147 62.2427C249.671 62.2427 252.434 63.0239 254.432 64.5864V62.731H267.778ZM249.923 75.1007C251.376 75.1007 252.487 74.8525 253.26 74.3521C254.041 73.8434 254.432 73.1436 254.432 72.2524C254.432 71.3328 254.041 70.6248 253.26 70.1366C252.487 69.6401 251.376 69.3879 249.923 69.3879C248.459 69.3879 247.336 69.6401 246.554 70.1366C245.781 70.6248 245.399 71.3328 245.399 72.2524C245.399 73.1436 245.781 73.8434 246.554 74.3521C247.336 74.8525 248.459 75.1007 249.923 75.1007Z" fill="#FF9900"/>
<path d="M112.636 42.8188C106.406 42.8188 101.593 41.7406 98.1993 39.5799C94.8016 37.4233 93.1049 34.3797 93.1049 30.4491C93.1049 26.4777 94.8016 23.4259 98.1993 21.2856C101.593 19.1372 106.406 18.063 112.636 18.063C118.886 18.063 123.696 19.1372 127.073 21.2856C130.458 23.4259 132.151 26.4777 132.151 30.4491C132.151 34.3797 130.458 37.4233 127.073 39.5799C123.696 41.7406 118.886 42.8188 112.636 42.8188ZM112.669 34.7297C114.642 34.7297 116.16 34.3553 117.226 33.6066C118.288 32.8579 118.821 31.8081 118.821 30.4491C118.821 29.0493 118.288 27.9873 117.226 27.259C116.16 26.5225 114.642 26.1522 112.669 26.1522C110.671 26.1522 109.129 26.5225 108.046 27.259C106.972 27.9873 106.435 29.0493 106.435 30.4491C106.435 31.8081 106.972 32.8579 108.046 33.6066C109.129 34.3553 110.671 34.7297 112.669 34.7297Z" fill="white"/>
<path d="M159.242 22.8154C161.432 22.8154 163.495 23.1043 165.427 23.6781C167.368 24.2559 168.927 25.2243 170.099 26.5915L160.805 33.4437C159.979 32.4915 159.023 31.751 157.94 31.2301C156.866 30.7093 155.743 30.4489 154.571 30.4489C152.215 30.4489 150.608 31.8283 149.754 34.583V42.3467H136.423V23.3037H149.754V26.7705C151.662 24.2314 154.824 22.9131 159.242 22.8154Z" fill="white"/>
<path d="M206.52 23.3037V42.3467H193.173V40.4912C191.175 42.0456 188.413 42.8187 184.889 42.8187C180.384 42.8187 176.905 41.9479 174.456 40.1982C172.014 38.4526 170.794 35.995 170.794 32.8252C170.794 29.6147 172.014 27.1449 174.456 25.4196C176.905 23.6862 180.384 22.8154 184.889 22.8154C188.413 22.8154 191.175 23.5967 193.173 25.1592V23.3037H206.52ZM188.665 35.6735C190.117 35.6735 191.228 35.4253 192.001 34.9248C192.783 34.4162 193.173 33.7163 193.173 32.8252C193.173 31.9056 192.783 31.1976 192.001 30.7093C191.228 30.2129 190.117 29.9606 188.665 29.9606C187.2 29.9606 186.077 30.2129 185.296 30.7093C184.523 31.1976 184.14 31.9056 184.14 32.8252C184.14 33.7163 184.523 34.4162 185.296 34.9248C186.077 35.4253 187.2 35.6735 188.665 35.6735Z" fill="white"/>
<path d="M234.081 22.8154C238.203 22.8154 241.381 23.6699 243.619 25.3708C245.865 27.0757 246.988 29.4805 246.988 32.5811V42.3467H233.642V36.3408C233.642 34.4772 233.275 33.0286 232.551 31.9951C231.823 30.9657 230.777 30.4489 229.41 30.4489C227.054 30.4489 225.447 31.8283 224.592 34.583V42.3467H211.262V23.3037H224.592V26.7705C226.5 24.2314 229.662 22.9131 234.081 22.8154Z" fill="white"/>
<path d="M286.311 23.3037V41.2562C286.311 44.5521 284.801 47.0993 281.786 48.8897C278.767 50.6882 274.466 51.5915 268.879 51.5915C263.028 51.5915 258.511 50.8346 255.321 49.3291C252.131 47.8195 250.536 45.6833 250.536 42.9163H262.825C262.825 43.9661 263.305 44.7718 264.273 45.3252C265.25 45.8786 266.637 46.1553 268.44 46.1553C269.905 46.1553 271.02 45.724 271.793 44.8695C272.574 44.0109 272.965 42.8065 272.965 41.2562V40.4912C270.967 42.0456 268.204 42.8187 264.68 42.8187C260.176 42.8187 256.697 41.9479 254.247 40.1982C251.806 38.4526 250.585 35.995 250.585 32.8252C250.585 29.6147 251.806 27.1449 254.247 25.4196C256.697 23.6862 260.176 22.8154 264.68 22.8154C268.204 22.8154 270.967 23.5967 272.965 25.1592V23.3037H286.311ZM268.44 35.6735C269.905 35.6735 271.02 35.4253 271.793 34.9248C272.574 34.4162 272.965 33.7163 272.965 32.8252C272.965 31.9056 272.574 31.1976 271.793 30.7093C271.02 30.2129 269.905 29.9606 268.44 29.9606C266.983 29.9606 265.868 30.2129 265.087 30.7093C264.314 31.1976 263.931 31.9056 263.931 32.8252C263.931 33.7163 264.314 34.4162 265.087 34.9248C265.868 35.4253 266.983 35.6735 268.44 35.6735Z" fill="white"/>
<path d="M326.062 32.8252C326.062 33.1751 326.017 33.5373 325.932 33.9157C325.854 34.2982 325.736 34.6603 325.573 35.0062H304.301C305.025 36.0926 306.327 36.6338 308.207 36.6338C309.529 36.6338 310.461 36.2879 311.006 35.5921L324.825 37.1058C323.641 38.9531 321.606 40.3691 318.721 41.3538C315.832 42.3304 312.329 42.8187 308.207 42.8187C302.486 42.8187 298.075 41.9479 294.974 40.1982C291.882 38.4526 290.336 35.995 290.336 32.8252C290.336 29.6147 291.882 27.1449 294.974 25.4196C298.075 23.6862 302.486 22.8154 308.207 22.8154C313.912 22.8154 318.314 23.6862 321.407 25.4196C324.507 27.1449 326.062 29.6147 326.062 32.8252ZM312.195 31.2464C311.153 29.7612 309.822 29.0166 308.207 29.0166C305.981 29.0166 304.565 29.7612 303.959 31.2464H312.195Z" fill="white"/>
<path d="M336.763 18.5349V25.2081L333.378 29.9607H327.714L330.383 25.2081H327.86V18.5349H336.763Z" fill="white"/>
<path d="M348.754 35.2503L341.137 38.9124C343.522 40.1494 346.158 41.1056 349.047 41.777C351.932 42.4362 354.833 42.7536 357.755 42.721C363.472 42.7536 367.879 42.2409 370.971 41.1748C374.064 40.1128 375.61 38.5666 375.61 36.5361C375.61 35.2015 375.17 34.1232 374.291 33.2972C373.421 32.4753 372.273 31.8324 370.841 31.3766C369.417 30.9128 367.85 30.5913 366.137 30.4163C364.42 30.2454 362.707 30.1519 360.994 30.1396C359.277 30.1193 357.706 30.1193 356.274 30.1396C354.85 30.1519 353.702 30.1356 352.823 30.0908C351.953 30.0379 351.521 29.9036 351.521 29.6839C351.521 29.3381 352.058 29.0614 353.133 28.8538C354.215 28.6504 355.757 28.5446 357.755 28.5446C361.031 28.5446 364.029 29.1631 366.756 30.4001L374.373 26.7217C372.342 25.4847 369.885 24.5244 367 23.8408C364.111 23.1572 361.031 22.8154 357.755 22.8154C352.046 22.8154 347.639 23.3647 344.539 24.4593C341.446 25.5579 339.9 27.1082 339.9 29.1143C339.9 30.4489 340.331 31.5313 341.202 32.3532C342.081 33.1792 343.229 33.8099 344.653 34.2412C346.085 34.6644 347.656 34.9655 349.373 35.1364C351.086 35.3114 352.799 35.409 354.516 35.4294C356.229 35.4416 357.804 35.4294 359.236 35.3968C360.668 35.3643 361.816 35.3805 362.687 35.4456C363.553 35.5107 363.989 35.6857 363.989 35.9665C363.989 36.2839 363.452 36.5361 362.377 36.7314C361.303 36.9186 359.761 37.0081 357.755 37.0081C356.201 37.0081 354.638 36.8617 353.067 36.5687C351.493 36.2676 350.056 35.8281 348.754 35.2503Z" fill="white"/>
</svg>
